<svg id="Capa_1" data-name="Capa 1" xmlns="http://www.w3.org/2000/svg" viewBox="0 0 200.16 200.16"><defs><style>.cls-1{fill:#fff;}</style></defs><title>adelante</title><path class="cls-1" d="M114.68,101c-17.09-21.26-33.8-42-50.5-62.78-.56-.69-1.16-1.35-1.71-2.05-6.22-7.83-6.24-15-.06-19.9s13.25-3.47,19.46,4.2Q110.58,56,139.18,91.55c5.57,6.93,5.74,12,.32,18.55q-30.21,36.43-60.6,72.71c-5,6-10.78,7.34-16.47,4.18s-7.37-8.22-5.85-14.17c.62-2.44,2.38-4.72,4-6.73C78.45,144.53,96.37,123,114.68,101Z"/></svg>