<svg id="Capa_1" data-name="Capa 1" xmlns="http://www.w3.org/2000/svg" viewBox="0 0 200.16 200.16"><defs><style>.cls-1{fill:#fff;}</style></defs><title>atrasatras</title><path class="cls-1" d="M52.66,100.11l50.5,62.78c.56.69,1.16,1.34,1.72,2,6.21,7.83,6.23,15,.06,19.91s-13.26,3.46-19.46-4.2q-28.71-35.49-57.31-71.07c-5.58-6.93-5.74-12-.33-18.54q30.21-36.44,60.6-72.72c5-6,10.78-7.34,16.47-4.18s7.37,8.22,5.86,14.17c-.62,2.44-2.38,4.73-4,6.74C88.9,56.6,71,78.09,52.66,100.11Z"/><path class="cls-1" d="M128.86,100.11l50.5,62.78c.56.69,1.16,1.34,1.71,2,6.22,7.83,6.24,15,.07,19.91s-13.26,3.46-19.46-4.2Q133,145.15,104.36,109.57c-5.57-6.93-5.73-12-.32-18.54q30.21-36.44,60.6-72.72c5-6,10.78-7.34,16.47-4.18s7.37,8.22,5.86,14.17c-.62,2.44-2.38,4.73-4,6.74C165.09,56.6,147.17,78.09,128.86,100.11Z"/></svg>