<svg id="Capa_1" data-name="Capa 1" xmlns="http://www.w3.org/2000/svg" viewBox="0 0 22.22 22.22"><defs><style>.cls-1{fill:none;stroke:#fff;stroke-miterlimit:10;stroke-width:0.5px;}.cls-2{fill:#fff;fill-rule:evenodd;}</style></defs><title>redes-fb</title><path class="cls-1" d="M11.17.44A10.67,10.67,0,1,0,21.84,11.11,10.68,10.68,0,0,0,11.17.44"/><path class="cls-2" d="M12.76,6.52c-.62,0-1.08.26-1.1,1,0,.56,0,1.85,0,1.85h2.58c-.12.9-.23,1.76-.35,2.63H11.66v6.55H8.94V12H6.71V9.4H9V9.21c0-.53,0-1.05,0-1.58a6.76,6.76,0,0,1,.09-1,2.86,2.86,0,0,1,1.17-1.95,3.41,3.41,0,0,1,1.95-.61c.47,0,.93,0,1.39,0,.25,0,.5,0,.74.07V6.52h-.18C13.65,6.52,13.21,6.5,12.76,6.52Z"/></svg>