<svg id="Capa_1" data-name="Capa 1" xmlns="http://www.w3.org/2000/svg" viewBox="0 0 22.22 22.22"><defs><style>.cls-1{fill:none;stroke:#fff;stroke-miterlimit:10;stroke-width:0.5px;}.cls-2{fill:#fff;fill-rule:evenodd;}</style></defs><title>redes-pin</title><path class="cls-1" d="M11.11.44A10.67,10.67,0,1,1,.44,11.11,10.69,10.69,0,0,1,11.11.44"/><path class="cls-2" d="M10.21,13.92a.81.81,0,0,1,0,.11,12,12,0,0,1-1.11,3.44,12.57,12.57,0,0,1-.86,1.29s-.07.1-.15.09S8,18.76,8,18.7a11.67,11.67,0,0,1-.11-1.87C7.89,16,8,15.74,9,11.32a.28.28,0,0,0,0-.18,3.13,3.13,0,0,1-.08-2.07c.48-1.51,2.19-1.62,2.48-.38.19.77-.3,1.78-.67,3.26-.31,1.23,1.13,2.11,2.37,1.21s1.58-2.81,1.5-4.21c-.17-2.8-3.24-3.41-5.19-2.5-2.23,1-2.74,3.79-1.73,5.06.13.16.23.26.19.42s-.13.51-.2.76a.26.26,0,0,1-.39.18,2.26,2.26,0,0,1-.94-.7,4.43,4.43,0,0,1,0-4.93A5.93,5.93,0,0,1,12.1,4.72a4.84,4.84,0,0,1,4.45,4,6.65,6.65,0,0,1-1.22,4.68c-1.45,1.79-3.8,1.91-4.89.81A3.67,3.67,0,0,1,10.21,13.92Z"/></svg>