<svg id="Capa_1" data-name="Capa 1" xmlns="http://www.w3.org/2000/svg" viewBox="0 0 22.22 22.22"><defs><style>.cls-1{fill:none;stroke:#fff;stroke-miterlimit:10;stroke-width:0.5px;}.cls-2{fill:#fff;fill-rule:evenodd;}</style></defs><title>redes-wp_Mesa de trabajo 1</title><path class="cls-1" d="M11.11.44A10.67,10.67,0,1,1,.44,11.11,10.69,10.69,0,0,1,11.11.44"/><path class="cls-2" d="M4.58,17.67l.22-.81c.22-.82.45-1.64.67-2.46a.61.61,0,0,0,0-.4,6.78,6.78,0,1,1,2.94,2.86.68.68,0,0,0-.42-.05C6.14,17.26,5,17.6,4.58,17.67Zm1.58-1.56,1.92-.5a.57.57,0,0,1,.46.06,5.5,5.5,0,0,0,3.76.71,5.67,5.67,0,1,0-5.84-2.86,1.19,1.19,0,0,1,.12,1.08C6.41,15.07,6.31,15.57,6.16,16.11Z"/><path class="cls-2" d="M13.18,14c-1.33,0-3.44-1.09-4.88-3.6a2,2,0,0,1,.31-2.61.94.94,0,0,1,.87-.13c.08,0,.15.12.19.2.19.44.38.88.55,1.33.09.24-.07.46-.42.85a.29.29,0,0,0,0,.39,4.61,4.61,0,0,0,2.35,2,.29.29,0,0,0,.36-.09c.54-.66.6-.86.88-.72,1.37.65,1.48.68,1.49.84A1.5,1.5,0,0,1,13.18,14Z"/></svg>