<svg id="Capa_1" data-name="Capa 1" xmlns="http://www.w3.org/2000/svg" viewBox="0 0 22.22 22.22"><defs><style>.cls-1{fill:none;stroke:#fff;stroke-miterlimit:10;stroke-width:0.5px;}.cls-2{fill:#fff;}</style></defs><title>redes-inst</title><path class="cls-1" d="M11.11.62A10.67,10.67,0,1,1,.44,11.29,10.69,10.69,0,0,1,11.11.62"/><path class="cls-2" d="M17.68,8.05a3.48,3.48,0,0,0-1.06-2.23,3.66,3.66,0,0,0-2.4-1,47.78,47.78,0,0,0-6.48.08A3.3,3.3,0,0,0,4.91,7.46a36.85,36.85,0,0,0-.07,7.35,3.31,3.31,0,0,0,2.63,2.85,38.12,38.12,0,0,0,7.25.05,3.31,3.31,0,0,0,2.87-2.62A40.51,40.51,0,0,0,17.68,8.05Zm-1.2,6.55a2.22,2.22,0,0,1-2.09,2,38.93,38.93,0,0,1-6.75-.09A2.15,2.15,0,0,1,6,14.63,42.85,42.85,0,0,1,6,8a2.22,2.22,0,0,1,2.07-2,46.25,46.25,0,0,1,6.45,0,2.2,2.2,0,0,1,2,2.09A47.62,47.62,0,0,1,16.48,14.6ZM11.24,8a3.36,3.36,0,1,0,3.36,3.36A3.36,3.36,0,0,0,11.24,8Zm0,5.52a2.17,2.17,0,1,1,2.19-2.15A2.17,2.17,0,0,1,11.22,13.48Zm4.3-5.65A.79.79,0,1,1,14.73,7,.79.79,0,0,1,15.52,7.83Z"/><path class="cls-2" d="M17.68,8.05a3.48,3.48,0,0,0-1.06-2.23,3.66,3.66,0,0,0-2.4-1,47.78,47.78,0,0,0-6.48.08A3.3,3.3,0,0,0,4.91,7.46a36.85,36.85,0,0,0-.07,7.35,3.31,3.31,0,0,0,2.63,2.85,38.12,38.12,0,0,0,7.25.05,3.31,3.31,0,0,0,2.87-2.62A40.51,40.51,0,0,0,17.68,8.05Zm-1.2,6.55a2.22,2.22,0,0,1-2.09,2,38.93,38.93,0,0,1-6.75-.09A2.15,2.15,0,0,1,6,14.63,42.85,42.85,0,0,1,6,8a2.22,2.22,0,0,1,2.07-2,46.25,46.25,0,0,1,6.45,0,2.2,2.2,0,0,1,2,2.09A47.62,47.62,0,0,1,16.48,14.6ZM11.24,8a3.36,3.36,0,1,0,3.36,3.36A3.36,3.36,0,0,0,11.24,8Zm0,5.52a2.17,2.17,0,1,1,2.19-2.15A2.17,2.17,0,0,1,11.22,13.48Zm4.3-5.65A.79.79,0,1,1,14.73,7,.79.79,0,0,1,15.52,7.83Z"/></svg>